<svg xmlns="http://www.w3.org/2000/svg" style="display:none">
<style type="text/css">
	.st0{fill-rule:evenodd;clip-rule:evenodd;fill:#6031D2;}
</style>
<symbol id="custom-webauth" viewBox="0 0 48 48">
    <path class="st0" d="M17.6,12.9c-0.1,0.6-0.2,1.2-0.4,1.9c-0.1,0.7-0.2,1.4-0.3,2.1c0.7-0.4,1.4-0.9,2.1-1.3c0,0,0.1,0,0.1-0.1
	c0.8-0.4,1.5-0.8,2.3-1.2c-0.7-0.3-1.4-0.6-2-0.8C18.8,13.3,18.2,13.1,17.6,12.9z M30.4,12.9c-0.3,0.1-0.6,0.2-0.9,0.3
	c-0.9,0.3-1.8,0.7-2.7,1c-0.1,0-0.1,0.1-0.2,0.1c0.7,0.4,1.5,0.8,2.2,1.2c0,0,0.1,0,0.1,0.1c0.7,0.4,1.4,0.8,2.1,1.3
	c-0.1-0.8-0.2-1.5-0.3-2.2C30.6,14.1,30.5,13.5,30.4,12.9z M14.4,21.4c-0.5,0.4-1,0.8-1.5,1.2c-0.6,0.5-1.1,0.9-1.6,1.4
	c0.4,0.3,0.8,0.7,1.2,1c0.6,0.5,1.3,1,1.9,1.5c0-0.8-0.1-1.7-0.1-2.6c0-0.2,0-0.4,0-0.6C14.3,22.7,14.3,22.1,14.4,21.4z M33.6,21.4
	c0,0.8,0,1.7,0,2.6c0,0.2,0,0.4,0,0.6c0,0.7,0,1.3-0.1,1.9c0.6-0.4,1.1-0.9,1.6-1.3c0.1-0.1,0.1-0.1,0.2-0.2
	c0.4-0.4,0.9-0.7,1.3-1.1c-0.4-0.3-0.8-0.7-1.2-1C35,22.5,34.3,21.9,33.6,21.4z M24,21.1c1.6,0,2.9,1.3,2.9,2.9s-1.3,2.9-2.9,2.9
	c-1.6,0-2.9-1.3-2.9-2.9S22.4,21.1,24,21.1z M24,15.5c-0.8,0.4-1.5,0.8-2.3,1.2c-0.5,0.3-1,0.5-1.4,0.8c-1.3,0.7-2.5,1.5-3.6,2.2
	c0,0.6-0.1,1.3-0.1,2c0,0.7,0,1.5,0,2.2c0,1.5,0.1,2.9,0.1,4.2c0.6,0.4,1.3,0.9,2,1.3c0.5,0.3,1,0.6,1.6,0.9c1.2,0.7,2.5,1.4,3.7,2
	c0.1,0,0.2-0.1,0.2-0.1c0.8-0.4,1.7-0.8,2.5-1.3c0.3-0.2,0.7-0.4,1-0.6c1.3-0.7,2.5-1.5,3.6-2.2c0-0.6,0.1-1.3,0.1-2
	c0-0.7,0-1.5,0-2.2c0-1.5-0.1-2.9-0.1-4.2c-0.6-0.4-1.3-0.9-2-1.3c-0.5-0.3-1-0.6-1.6-0.9C26.5,16.8,25.2,16.1,24,15.5z M17,31.1
	c0.1,0.8,0.2,1.5,0.3,2.2c0.1,0.6,0.2,1.2,0.3,1.8c0.4-0.1,0.7-0.2,1.1-0.4c0.1,0,0.2-0.1,0.3-0.1c0.8-0.3,1.5-0.6,2.3-0.9
	c0,0,0,0,0,0c-0.8-0.4-1.5-0.8-2.3-1.2c0,0-0.1,0-0.1-0.1C18.3,31.9,17.6,31.5,17,31.1z M31,31.1c-0.5,0.3-1.1,0.7-1.6,1
	c-0.2,0.1-0.4,0.2-0.6,0.3c-0.7,0.4-1.3,0.7-2,1.1c-0.1,0.1-0.2,0.1-0.3,0.2c0.7,0.3,1.3,0.6,2,0.8c0.6,0.2,1.2,0.4,1.8,0.6
	c0.1-0.6,0.3-1.2,0.4-1.9C30.9,32.5,31,31.8,31,31.1z M24,0c3.1,0,5.7,3.2,7.5,8.4c-0.7,0.2-1.4,0.4-2.2,0.7
	c-1.5-4.3-3.4-6.8-5.3-6.8c-2.1,0-4.4,3.2-5.8,8.5c0.6,0.2,1.2,0.4,1.7,0.6c1.3,0.5,2.7,1.1,4.1,1.7c0.1,0,0.2-0.1,0.2-0.1
	c0.9-0.4,1.8-0.8,2.7-1.1c0.1,0,0.2-0.1,0.3-0.1c2.6-1,5.2-1.8,7.5-2.1c5-0.8,8.6,0,10,2.4c1.4,2.4,0.4,5.9-2.9,9.9
	c-0.2,0.2-0.4,0.5-0.6,0.7c-0.5-0.5-1-1.1-1.5-1.6c2.9-3.3,4-6.2,3.1-7.8c-0.9-1.5-3.7-2-7.7-1.4c-0.8,0.1-1.7,0.3-2.6,0.6
	c0.1,0.6,0.2,1.2,0.4,1.8c0.2,1.4,0.4,2.9,0.6,4.4c0.7,0.5,1.4,1,2,1.5c2.5,2,4.7,4,6.4,6.1c3.2,3.9,4.3,7.5,2.9,9.9
	c-1,1.8-3.3,2.8-6.5,2.8c-1.1,0-2.2-0.1-3.5-0.3c-0.3-0.1-0.7-0.1-1-0.2c0.2-0.7,0.4-1.4,0.6-2.2c0.3,0.1,0.5,0.1,0.8,0.1
	c3.9,0.7,6.8,0.1,7.7-1.4c1.1-1.8-0.6-5.4-4.5-9.3c-0.4,0.4-0.8,0.7-1.2,1.1c-0.1,0.1-0.1,0.1-0.2,0.2c-1.1,0.9-2.3,1.8-3.5,2.7
	c-0.1,0.7-0.1,1.4-0.2,2.1C32,41.3,28.5,48,24,48c-3.1,0-5.7-3.2-7.5-8.4c0.7-0.2,1.4-0.4,2.2-0.7c1.5,4.3,3.4,6.8,5.3,6.8
	c2.1,0,4.4-3.2,5.9-8.6c-0.6-0.2-1.2-0.4-1.7-0.6c-1.3-0.5-2.7-1.1-4.1-1.7c0,0-0.1,0-0.1,0c-0.8,0.4-1.5,0.7-2.3,1
	c-0.1,0-0.2,0.1-0.3,0.1c-4.4,1.8-8.3,2.7-11.5,2.7c-3.2,0-5.5-0.9-6.6-2.8c-1.5-2.7-0.1-6.6,3.6-10.7l1.6,1.6c-3,3.4-4.1,6.4-3.2,8
	c1.1,1.8,5,2.2,10.3,0.8c-0.1-0.6-0.2-1.2-0.4-1.8c-0.2-1.4-0.4-2.9-0.6-4.4c-0.7-0.5-1.4-1-2-1.5c-6.2-4.8-9.9-9.8-9.9-13.6
	c0-0.9,0.2-1.7,0.6-2.4c1.5-2.7,5.6-3.4,11-2.3c-0.2,0.7-0.4,1.4-0.6,2.2c-4.4-0.9-7.6-0.4-8.5,1.2c-1.1,1.8,0.6,5.4,4.5,9.3
	c0.5-0.5,1-0.9,1.6-1.3c1-0.9,2.2-1.7,3.4-2.6c0.1-0.7,0.1-1.4,0.2-2.1C16,6.7,19.5,0,24,0z"/>
</symbol>
</svg>
